<svg class="svg-canvas" viewBox="0 0 800 600" width="1600" height="1200" preserveAspectRatio="none" version="1.1" xmlns="http://www.w3.org/2000/svg" xmlns:xlink="http://www.w3.org/1999/xlink">
      <!--滤镜-->
      <defs></defs>
    
      <!-- 背景 -->
      <g id="background">
          <rect x="0" y="0" fill="#ffffff" width="800" height="600"></rect>
          
        </g>
    
      <!--元素-->
      
              <g id="shape_W7YDZ35Q8m" ref="shape_W7YDZ35Q8m" key="shape_W7YDZ35Q8m" transform="translate(133.99756382123945,22.048271000495163) rotate(0,296.1602494105099,303.33655454949223) scale(1,1)" style="[object Object]" filter="">
                <!--普通元素-->
                <svg xmlns="http://www.w3.org/2000/svg" version="1.1" xmlns:xlink="http://www.w3.org/1999/xlink" width="764.9566241055381" height="606.6731090989845" viewBox="0 0 514 407.644" data-parent="shape_W7YDZ35Q8m"><g data-width="281.88" transform="translate(58, 0)"><path d="M19.08-38.69L32.94-38.69L32.94-31.78L22.21-31.78Q18.04-31.78 16.12-31.20Q14.21-30.62 12.93-28.94L12.93-28.94Q12.06-27.78 11.75-26.62Q11.43-25.46 11.19-22.68L11.19-22.68L32.94-22.68L32.94-15.78L11.19-15.78Q11.66-10.79 14.15-8.85Q16.65-6.90 22.62-6.90L22.62-6.90L32.94-6.90L32.94 0L22.21 0Q17.86 0 14.56-0.52L14.56-0.52Q9.34-1.39 6.26-5.10L6.26-5.10Q1.86-10.44 1.86-19.55L1.86-19.55Q1.86-29.64 8.06-35.26L8.06-35.26Q10.21-37.18 12.62-37.93Q15.02-38.69 19.08-38.69L19.08-38.69Z" transform="translate(0 223.822) skewX(-14)" fill="#246fdd" stroke="#246fdd" stroke-width="0.097" data-glyph-w="35.496" data-glyph-h="58" data-glyph-ascender="49.822" data-glyph-descender="-8.178"></path><path d="M9.80 0L0.17 0L16.18-38.69L25.64-38.69L41.64 0L32.02 0L28.25-8.93L13.57-8.93L9.80 0ZM26.45-15.83L20.94-29.35L15.43-15.83L26.45-15.83Z" transform="translate(35.496 223.822) skewX(-14)" fill="#246fdd" stroke="#246fdd" stroke-width="0.097" data-glyph-w="41.876000000000005" data-glyph-h="58" data-glyph-ascender="49.822" data-glyph-descender="-8.178"></path><path d="M23.20 0L3.77 0L3.77-6.90L21.46-6.90Q25.69-6.90 27.09-7.71L27.09-7.71Q29.12-8.93 29.12-11.37L29.12-11.37Q29.12-14.21 26.74-15.49L26.74-15.49Q25.40-16.24 22.45-16.24L22.45-16.24L15.25-16.24Q8.70-16.24 5.80-18.62L5.80-18.62Q4.00-20.13 2.99-22.39Q1.97-24.65 1.97-27.26L1.97-27.26Q1.97-31.32 4.35-34.68L4.35-34.68Q6.67-37.93 11.77-38.51L11.77-38.51Q13.51-38.69 16.94-38.69L16.94-38.69L36.13-38.69L36.13-31.78L18.79-31.78Q14.91-31.73 13.63-31.44L13.63-31.44Q11.02-30.80 11.02-27.49L11.02-27.49Q11.02-24.71 13.22-23.78L13.22-23.78Q14.67-23.08 18.10-23.08L18.10-23.08L24.30-23.08Q29.06-23.08 31.38-22.27L31.38-22.27Q35.50-20.88 37.06-17.40L37.06-17.40Q38.28-14.62 38.28-11.43L38.28-11.43Q38.28-7.89 36.66-5.10L36.66-5.10Q34.39-1.16 29.87-0.35L29.87-0.35Q27.67 0 23.20 0L23.20 0Z" transform="translate(77.37200000000001 223.822) skewX(-14)" fill="#246fdd" stroke="#246fdd" stroke-width="0.097" data-glyph-w="40.31" data-glyph-h="58" data-glyph-ascender="49.822" data-glyph-descender="-8.178"></path><path d="M14.44 0L14.44-16.94L0.12-38.69L9.74-38.69L18.62-23.55L27.96-38.69L37.76-38.69L22.68-16.65L22.68 0L14.44 0Z" transform="translate(117.68200000000002 223.822) skewX(-14)" fill="#246fdd" stroke="#246fdd" stroke-width="0.097" data-glyph-w="37.874" data-glyph-h="58" data-glyph-ascender="49.822" data-glyph-descender="-8.178"></path><path d="M0-18.44L13.51-18.44L13.51-11.48L0-11.48L0-18.44Z" transform="translate(155.556 223.822) skewX(-14)" fill="#246fdd" stroke="#246fdd" stroke-width="0.097" data-glyph-w="13.514000000000001" data-glyph-h="58" data-glyph-ascender="49.822" data-glyph-descender="-8.178"></path><path d="M3.48-16.94L3.48-38.69L11.66-38.69L11.66-16.94Q11.83-12.82 12.01-11.48L12.01-11.48Q12.41-8.82 14.56-7.86Q16.70-6.90 22.10-6.90L22.10-6.90L29.99-6.90L29.99 0L21.23 0Q15.02 0 12.24-0.70L12.24-0.70Q5.86-2.55 4.12-8.82L4.12-8.82Q3.48-11.25 3.48-16.94L3.48-16.94Z" transform="translate(169.07000000000002 223.822) skewX(-14)" fill="#246fdd" stroke="#246fdd" stroke-width="0.097" data-glyph-w="30.856" data-glyph-h="58" data-glyph-ascender="49.822" data-glyph-descender="-8.178"></path><path d="M20.94-38.92L20.94-38.92Q26.74-38.92 31.15-36.95L31.15-36.95Q36.31-34.57 38.40-29L38.40-29Q40.02-24.65 40.02-18.79L40.02-18.79Q40.02-12.88 38.05-8.53L38.05-8.53Q35.55-3.36 30.39-1.28L30.39-1.28Q26.56 0.23 21.58 0.23L21.58 0.23Q15.02 0.23 10.21-2.20L10.21-2.20Q6.15-4.23 4.00-8.58Q1.86-12.93 1.86-19.14L1.86-19.14Q1.86-30.22 7.37-34.92L7.37-34.92Q12.01-38.86 20.94-38.92ZM21.00-32.42L21.00-32.42Q15.31-32.42 12.88-28.71L12.88-28.71Q10.90-25.81 10.90-19.37L10.90-19.37Q10.90-12.59 13.34-9.40L13.34-9.40Q15.78-6.26 21.05-6.26L21.05-6.26Q26.16-6.26 28.57-9.45Q30.97-12.64 30.97-19.31L30.97-19.31Q30.97-25.40 29-28.59L29-28.59Q26.74-32.36 21.00-32.42Z" transform="translate(199.92600000000002 223.822) skewX(-14)" fill="#246fdd" stroke="#246fdd" stroke-width="0.097" data-glyph-w="41.876000000000005" data-glyph-h="58" data-glyph-ascender="49.822" data-glyph-descender="-8.178"></path><path d="M18.15-16.07L18.15-22.97L37.12-22.97L37.12 0L19.84 0Q15.37 0 12.73-0.67Q10.09-1.33 7.95-3.02L7.95-3.02Q1.86-7.71 1.86-19.20L1.86-19.20Q1.86-26.68 4.76-31.67L4.76-31.67Q6.90-35.32 10.61-37.00Q14.33-38.69 20.24-38.69L20.24-38.69L37.12-38.69L37.12-31.78L21.17-31.78Q16.01-31.78 13.69-29.52L13.69-29.52Q10.90-26.85 10.90-19.95L10.90-19.95Q10.90-16.41 11.63-13.57Q12.35-10.73 13.63-9.34L13.63-9.34Q14.73-8.06 16.68-7.48Q18.62-6.90 21.46-6.90L21.46-6.90L28.94-6.90L28.94-16.07L18.15-16.07Z" transform="translate(241.80200000000002 223.822) skewX(-14)" fill="#246fdd" stroke="#246fdd" stroke-width="0.097" data-glyph-w="40.078" data-glyph-h="58" data-glyph-ascender="49.822" data-glyph-descender="-8.178"></path></g></svg>
              </g>
              <g id="shape_AjwXCJgVSQ" ref="shape_AjwXCJgVSQ" key="shape_AjwXCJgVSQ" transform="translate(160,225.6357560088972) rotate(0,119.05939674794368,74.36424399110282) scale(1,1)" style="[object Object]" filter="">
                <!--普通元素-->
                <svg version="1.1" id="图层_1" xmlns="http://www.w3.org/2000/svg" xmlns:xlink="http://www.w3.org/1999/xlink" x="0px" y="0px" width="238.11879349588736" height="148.72848798220565" viewBox="10.189589500427246 43.904483795166016 179.6204071044922 112.19052124023438" enable-background="new 0 0 200 200" xml:space="preserve" preserveAspectRatio="none" data-parent="shape_AjwXCJgVSQ">
<g>
	<path fill="#246fdd" d="M106.321,89.494c0,0,21.712-23.689,49.111-19.623c20.564,3.052,29.926,14.137,34.378,20.14H176.37
		c0,0-9.943-9.084-23.78-10.899C140.013,77.462,129.843,78.121,106.321,89.494z" stroke-width="0"></path>
	<path fill="#246fdd" d="M147.161,71.716c0,0-5.801-22.574-33.028-27.054S61.92,55.92,43.31,82.687l22.517-4.021
		c0,0,19.354-29.195,47.101-24.24c16.083,2.872,24.699,10.109,27.916,18.496L147.161,71.716z" stroke-width="0"></path>
	<path fill="#24dd7f" d="M62.38,83.893c0,0-46.698,7.782-51.696,38.255c-4.136,25.216,18.611,33.947,33.43,33.947
		c18.036,0,112.698,0,112.698,0l1.206-5.687c0,0-71.397,0.324-101.38,0c-15.968-0.172-28.147-4.996-28.147-22.574
		c0-14.992,12.867-26.502,29.065-32.034L62.38,83.893z" stroke-width="0"></path>
</g>
</svg>
              </g>
    </svg>